<mxfile host="app.diagrams.net" modified="2022-01-12T17:37:56.074Z" agent="5.0 (Windows NT 10.0; Win64; x64) AppleWebKit/537.36 (KHTML, like Gecko) Chrome/97.0.4692.71 Safari/537.36 Edg/97.0.1072.55" etag="OQLUC5-jeH4K7ysigMB7" version="16.2.4" type="github">
  <diagram id="4xnGdi8sjwa7YPnJ_iCW" name="Page-1">
    <mxGraphModel dx="782" dy="468" grid="1" gridSize="10" guides="1" tooltips="1" connect="1" arrows="1" fold="1" page="1" pageScale="1" pageWidth="850" pageHeight="1100" math="0" shadow="0">
      <root>
        <mxCell id="0" />
        <mxCell id="1" parent="0" />
        <mxCell id="PWWns6GIP4DrWXRK_Z0l-1" value="" style="sketch=0;pointerEvents=1;shadow=0;dashed=0;html=1;strokeColor=none;fillColor=#505050;labelPosition=center;verticalLabelPosition=bottom;verticalAlign=top;outlineConnect=0;align=center;shape=mxgraph.office.users.meeting;" vertex="1" parent="1">
          <mxGeometry x="40" y="220" width="59" height="38" as="geometry" />
        </mxCell>
        <mxCell id="PWWns6GIP4DrWXRK_Z0l-4" value="Stakeholders" style="text;html=1;strokeColor=none;fillColor=none;align=center;verticalAlign=middle;whiteSpace=wrap;rounded=0;" vertex="1" parent="1">
          <mxGeometry x="40" y="258" width="60" height="30" as="geometry" />
        </mxCell>
        <mxCell id="PWWns6GIP4DrWXRK_Z0l-5" value="" style="sketch=0;pointerEvents=1;shadow=0;dashed=0;html=1;strokeColor=none;fillColor=#505050;labelPosition=center;verticalLabelPosition=bottom;verticalAlign=top;outlineConnect=0;align=center;shape=mxgraph.office.users.administrator;" vertex="1" parent="1">
          <mxGeometry x="220" y="217" width="58" height="53" as="geometry" />
        </mxCell>
        <mxCell id="PWWns6GIP4DrWXRK_Z0l-6" value="" style="sketch=0;pointerEvents=1;shadow=0;dashed=0;html=1;strokeColor=none;fillColor=#505050;labelPosition=center;verticalLabelPosition=bottom;verticalAlign=top;outlineConnect=0;align=center;shape=mxgraph.office.users.mail_user;" vertex="1" parent="1">
          <mxGeometry x="435" y="217" width="58" height="59" as="geometry" />
        </mxCell>
        <mxCell id="PWWns6GIP4DrWXRK_Z0l-7" value="" style="sketch=0;pointerEvents=1;shadow=0;dashed=0;html=1;strokeColor=none;fillColor=#505050;labelPosition=center;verticalLabelPosition=bottom;verticalAlign=top;outlineConnect=0;align=center;shape=mxgraph.office.users.users;" vertex="1" parent="1">
          <mxGeometry x="600" y="220" width="46" height="50" as="geometry" />
        </mxCell>
        <mxCell id="PWWns6GIP4DrWXRK_Z0l-10" value="" style="sketch=0;outlineConnect=0;fontColor=#232F3E;gradientColor=none;fillColor=#232F3D;strokeColor=none;dashed=0;verticalLabelPosition=bottom;verticalAlign=top;align=center;html=1;fontSize=12;fontStyle=0;aspect=fixed;pointerEvents=1;shape=mxgraph.aws4.forums;" vertex="1" parent="1">
          <mxGeometry x="130" y="310" width="41.05" height="40" as="geometry" />
        </mxCell>
        <mxCell id="PWWns6GIP4DrWXRK_Z0l-15" value="" style="endArrow=classic;html=1;rounded=0;exitX=0.5;exitY=1;exitDx=0;exitDy=0;entryX=-0.001;entryY=0.5;entryDx=0;entryDy=0;entryPerimeter=0;" edge="1" parent="1" source="PWWns6GIP4DrWXRK_Z0l-4" target="PWWns6GIP4DrWXRK_Z0l-10">
          <mxGeometry width="50" height="50" relative="1" as="geometry">
            <mxPoint x="390" y="410" as="sourcePoint" />
            <mxPoint x="440" y="360" as="targetPoint" />
            <Array as="points">
              <mxPoint x="70" y="330" />
            </Array>
          </mxGeometry>
        </mxCell>
        <mxCell id="PWWns6GIP4DrWXRK_Z0l-16" value="" style="endArrow=classic;html=1;rounded=0;" edge="1" parent="1" source="PWWns6GIP4DrWXRK_Z0l-10">
          <mxGeometry width="50" height="50" relative="1" as="geometry">
            <mxPoint x="390" y="410" as="sourcePoint" />
            <mxPoint x="249" y="290" as="targetPoint" />
            <Array as="points">
              <mxPoint x="249" y="330" />
            </Array>
          </mxGeometry>
        </mxCell>
        <mxCell id="PWWns6GIP4DrWXRK_Z0l-17" value="" style="endArrow=classic;html=1;rounded=0;exitX=0.5;exitY=-0.125;exitDx=0;exitDy=0;exitPerimeter=0;" edge="1" parent="1" source="PWWns6GIP4DrWXRK_Z0l-5" target="PWWns6GIP4DrWXRK_Z0l-18">
          <mxGeometry width="50" height="50" relative="1" as="geometry">
            <mxPoint x="390" y="260" as="sourcePoint" />
            <mxPoint x="310" y="180" as="targetPoint" />
            <Array as="points">
              <mxPoint x="249" y="180" />
            </Array>
          </mxGeometry>
        </mxCell>
        <mxCell id="PWWns6GIP4DrWXRK_Z0l-18" value="" style="sketch=0;outlineConnect=0;fontColor=#232F3E;gradientColor=none;fillColor=#232F3D;strokeColor=none;dashed=0;verticalLabelPosition=bottom;verticalAlign=top;align=center;html=1;fontSize=12;fontStyle=0;aspect=fixed;pointerEvents=1;shape=mxgraph.aws4.gear;" vertex="1" parent="1">
          <mxGeometry x="340" y="160" width="40" height="40" as="geometry" />
        </mxCell>
        <mxCell id="PWWns6GIP4DrWXRK_Z0l-19" value="" style="endArrow=classic;html=1;rounded=0;exitX=1;exitY=0.5;exitDx=0;exitDy=0;exitPerimeter=0;entryX=0.431;entryY=-0.119;entryDx=0;entryDy=0;entryPerimeter=0;" edge="1" parent="1" source="PWWns6GIP4DrWXRK_Z0l-18" target="PWWns6GIP4DrWXRK_Z0l-6">
          <mxGeometry width="50" height="50" relative="1" as="geometry">
            <mxPoint x="390" y="260" as="sourcePoint" />
            <mxPoint x="440" y="210" as="targetPoint" />
            <Array as="points">
              <mxPoint x="460" y="180" />
            </Array>
          </mxGeometry>
        </mxCell>
        <mxCell id="PWWns6GIP4DrWXRK_Z0l-33" value="" style="sketch=0;outlineConnect=0;fontColor=#232F3E;gradientColor=none;fillColor=#232F3D;strokeColor=none;dashed=0;verticalLabelPosition=bottom;verticalAlign=top;align=center;html=1;fontSize=12;fontStyle=0;aspect=fixed;pointerEvents=1;shape=mxgraph.aws4.corporate_data_center;" vertex="1" parent="1">
          <mxGeometry x="540" y="300" width="33.97" height="50" as="geometry" />
        </mxCell>
        <mxCell id="PWWns6GIP4DrWXRK_Z0l-34" value="" style="endArrow=classic;html=1;rounded=0;" edge="1" parent="1" target="PWWns6GIP4DrWXRK_Z0l-33">
          <mxGeometry width="50" height="50" relative="1" as="geometry">
            <mxPoint x="480" y="300" as="sourcePoint" />
            <mxPoint x="440" y="280" as="targetPoint" />
            <Array as="points">
              <mxPoint x="480" y="325" />
            </Array>
          </mxGeometry>
        </mxCell>
        <mxCell id="PWWns6GIP4DrWXRK_Z0l-35" value="" style="endArrow=classic;html=1;rounded=0;" edge="1" parent="1">
          <mxGeometry width="50" height="50" relative="1" as="geometry">
            <mxPoint x="573.97" y="326" as="sourcePoint" />
            <mxPoint x="624" y="300" as="targetPoint" />
            <Array as="points">
              <mxPoint x="624" y="326" />
            </Array>
          </mxGeometry>
        </mxCell>
        <mxCell id="PWWns6GIP4DrWXRK_Z0l-36" value="" style="endArrow=classic;html=1;rounded=0;exitX=1.087;exitY=0.6;exitDx=0;exitDy=0;exitPerimeter=0;" edge="1" parent="1" source="PWWns6GIP4DrWXRK_Z0l-7">
          <mxGeometry width="50" height="50" relative="1" as="geometry">
            <mxPoint x="630" y="360" as="sourcePoint" />
            <mxPoint x="710" y="250" as="targetPoint" />
          </mxGeometry>
        </mxCell>
        <mxCell id="PWWns6GIP4DrWXRK_Z0l-37" value="" style="sketch=0;outlineConnect=0;fontColor=#232F3E;gradientColor=none;fillColor=#232F3D;strokeColor=none;dashed=0;verticalLabelPosition=bottom;verticalAlign=top;align=center;html=1;fontSize=12;fontStyle=0;aspect=fixed;pointerEvents=1;shape=mxgraph.aws4.documents;" vertex="1" parent="1">
          <mxGeometry x="710" y="222.37" width="44" height="53.63" as="geometry" />
        </mxCell>
        <mxCell id="PWWns6GIP4DrWXRK_Z0l-38" value="Developer/Administrator" style="text;html=1;strokeColor=none;fillColor=none;align=center;verticalAlign=middle;whiteSpace=wrap;rounded=0;" vertex="1" parent="1">
          <mxGeometry x="210" y="258" width="60" height="30" as="geometry" />
        </mxCell>
        <mxCell id="PWWns6GIP4DrWXRK_Z0l-40" value="Template editors" style="text;html=1;strokeColor=none;fillColor=none;align=center;verticalAlign=middle;whiteSpace=wrap;rounded=0;" vertex="1" parent="1">
          <mxGeometry x="420" y="270" width="110" height="30" as="geometry" />
        </mxCell>
        <mxCell id="PWWns6GIP4DrWXRK_Z0l-41" value="Content editors" style="text;html=1;strokeColor=none;fillColor=none;align=center;verticalAlign=middle;whiteSpace=wrap;rounded=0;" vertex="1" parent="1">
          <mxGeometry x="593" y="270" width="60" height="30" as="geometry" />
        </mxCell>
        <mxCell id="PWWns6GIP4DrWXRK_Z0l-42" value="Brand information" style="text;html=1;strokeColor=none;fillColor=none;align=center;verticalAlign=middle;whiteSpace=wrap;rounded=0;" vertex="1" parent="1">
          <mxGeometry x="120.52000000000001" y="350" width="60" height="30" as="geometry" />
        </mxCell>
        <mxCell id="PWWns6GIP4DrWXRK_Z0l-43" value="Component library" style="text;html=1;strokeColor=none;fillColor=none;align=center;verticalAlign=middle;whiteSpace=wrap;rounded=0;" vertex="1" parent="1">
          <mxGeometry x="330" y="200" width="60" height="30" as="geometry" />
        </mxCell>
        <mxCell id="PWWns6GIP4DrWXRK_Z0l-44" value="Template" style="text;html=1;strokeColor=none;fillColor=none;align=center;verticalAlign=middle;whiteSpace=wrap;rounded=0;" vertex="1" parent="1">
          <mxGeometry x="526.98" y="350" width="60" height="30" as="geometry" />
        </mxCell>
        <mxCell id="PWWns6GIP4DrWXRK_Z0l-45" value="Pages" style="text;html=1;strokeColor=none;fillColor=none;align=center;verticalAlign=middle;whiteSpace=wrap;rounded=0;" vertex="1" parent="1">
          <mxGeometry x="702" y="276" width="60" height="30" as="geometry" />
        </mxCell>
        <mxCell id="PWWns6GIP4DrWXRK_Z0l-46" value="" style="endArrow=none;dashed=1;html=1;rounded=0;" edge="1" parent="1">
          <mxGeometry width="50" height="50" relative="1" as="geometry">
            <mxPoint x="310" y="120" as="sourcePoint" />
            <mxPoint x="680" y="120" as="targetPoint" />
          </mxGeometry>
        </mxCell>
        <mxCell id="PWWns6GIP4DrWXRK_Z0l-47" value="" style="endArrow=none;dashed=1;html=1;dashPattern=1 3;strokeWidth=2;rounded=0;" edge="1" parent="1">
          <mxGeometry width="50" height="50" relative="1" as="geometry">
            <mxPoint x="310" y="400" as="sourcePoint" />
            <mxPoint x="680" y="400" as="targetPoint" />
          </mxGeometry>
        </mxCell>
        <mxCell id="PWWns6GIP4DrWXRK_Z0l-50" value="&lt;b&gt;&lt;font style=&quot;font-size: 14px&quot;&gt;Possibility of automation&lt;/font&gt;&lt;/b&gt;" style="edgeLabel;html=1;align=center;verticalAlign=middle;resizable=0;points=[];" vertex="1" connectable="0" parent="PWWns6GIP4DrWXRK_Z0l-47">
          <mxGeometry x="-0.2288" y="1" relative="1" as="geometry">
            <mxPoint as="offset" />
          </mxGeometry>
        </mxCell>
        <mxCell id="PWWns6GIP4DrWXRK_Z0l-48" value="" style="endArrow=none;dashed=1;html=1;dashPattern=1 3;strokeWidth=2;rounded=0;" edge="1" parent="1">
          <mxGeometry width="50" height="50" relative="1" as="geometry">
            <mxPoint x="310" y="400" as="sourcePoint" />
            <mxPoint x="310" y="120" as="targetPoint" />
          </mxGeometry>
        </mxCell>
        <mxCell id="PWWns6GIP4DrWXRK_Z0l-49" value="" style="endArrow=none;dashed=1;html=1;dashPattern=1 3;strokeWidth=2;rounded=0;" edge="1" parent="1">
          <mxGeometry width="50" height="50" relative="1" as="geometry">
            <mxPoint x="680" y="400" as="sourcePoint" />
            <mxPoint x="680" y="120" as="targetPoint" />
          </mxGeometry>
        </mxCell>
      </root>
    </mxGraphModel>
  </diagram>
</mxfile>
